<?xml version="1.0" standalone="no"?>
<!DOCTYPE svg PUBLIC "-//W3C//DTD SVG 20010904//EN"
 "http://www.w3.org/TR/2001/REC-SVG-20010904/DTD/svg10.dtd">
<svg version="1.0" xmlns="http://www.w3.org/2000/svg"
 width="277.000000pt" height="277.000000pt" viewBox="0 0 277.000000 277.000000"
 preserveAspectRatio="xMidYMid meet">
<metadata>
Created by potrace 1.14, written by Peter Selinger 2001-2017
</metadata>
<g transform="translate(0.000000,277.000000) scale(0.100000,-0.100000)"
fill="#000000" stroke="none">
<path d="M1230 2750 c-177 -22 -305 -62 -470 -146 -248 -127 -455 -334 -582
-582 -106 -210 -155 -437 -144 -672 15 -337 140 -629 371 -869 180 -187 239
-215 450 -214 148 1 237 22 368 90 75 38 110 65 188 143 82 81 103 109 142
190 63 126 88 229 89 355 1 55 -2 120 -5 145 -7 45 -6 45 28 -28 52 -105 73
-243 57 -368 -46 -363 -328 -631 -687 -652 -94 -5 -98 -6 -69 -18 66 -27 234
-55 365 -61 164 -7 165 -7 289 123 141 150 212 332 211 544 0 218 -87 419
-242 566 -80 75 -101 86 -144 78 -28 -5 -46 -18 -76 -56 -44 -57 -48 -52 -18
26 46 124 174 278 295 354 315 199 750 121 973 -175 28 -37 61 -89 73 -115 12
-27 26 -48 31 -48 14 0 -1 198 -24 312 -122 615 -647 1059 -1276 1082 -65 3
-152 1 -193 -4z"/>
<path d="M1890 1633 c-130 -23 -262 -79 -362 -155 -37 -28 -66 -53 -65 -55 2
-2 41 7 87 18 118 30 290 24 403 -15 229 -77 394 -242 473 -471 24 -71 28 -95
28 -212 1 -73 4 -133 8 -133 9 0 80 114 122 199 43 84 99 248 116 337 14 71 7
91 -65 184 -124 160 -297 264 -499 299 -58 11 -196 13 -246 4z"/>
<path d="M1608 1347 c194 -108 321 -269 372 -471 24 -96 27 -262 5 -353 -30
-128 -95 -242 -199 -351 -32 -34 -54 -62 -48 -62 24 0 162 55 252 100 108 55
211 125 291 198 l54 50 -1 123 c-1 149 -18 227 -79 354 -120 249 -368 419
-640 441 l-70 5 63 -34z"/>
</g>
</svg>
